<svg width="226" height="87" viewBox="0 0 226 87" fill="none" xmlns="http://www.w3.org/2000/svg">
<path d="M18.4243 24.6284C18.4243 24.0571 18.3364 23.5444 18.1606 23.0903C17.9995 22.6216 17.6919 22.1968 17.2378 21.8159C16.7837 21.4204 16.1465 21.0322 15.3262 20.6514C14.5059 20.2705 13.4438 19.875 12.1401 19.4648C10.6899 18.9961 9.31299 18.4688 8.00928 17.8828C6.72021 17.2969 5.57764 16.6157 4.58154 15.8394C3.6001 15.0483 2.82373 14.1328 2.25244 13.0928C1.6958 12.0527 1.41748 10.8442 1.41748 9.46729C1.41748 8.13428 1.71045 6.92578 2.29639 5.8418C2.88232 4.74316 3.70264 3.80566 4.75732 3.0293C5.81201 2.23828 7.05713 1.63037 8.49268 1.20557C9.94287 0.780762 11.5322 0.568359 13.2607 0.568359C15.6191 0.568359 17.6772 0.993164 19.4351 1.84277C21.1929 2.69238 22.5552 3.85693 23.522 5.33643C24.5034 6.81592 24.9941 8.50781 24.9941 10.4121H18.4463C18.4463 9.47461 18.2485 8.6543 17.853 7.95117C17.4722 7.2334 16.8862 6.66943 16.0952 6.25928C15.3188 5.84912 14.3374 5.64404 13.1509 5.64404C12.0083 5.64404 11.0562 5.81982 10.2944 6.17139C9.53271 6.5083 8.96143 6.96973 8.58057 7.55566C8.19971 8.12695 8.00928 8.77148 8.00928 9.48926C8.00928 10.0312 8.14111 10.522 8.40479 10.9614C8.68311 11.4009 9.09326 11.811 9.63525 12.1919C10.1772 12.5728 10.8438 12.9316 11.6348 13.2686C12.4258 13.6055 13.3413 13.9351 14.3813 14.2573C16.1245 14.7847 17.6553 15.3779 18.9736 16.0371C20.3066 16.6963 21.4199 17.436 22.3135 18.2563C23.207 19.0767 23.8809 20.0068 24.335 21.0469C24.7891 22.0869 25.0161 23.2661 25.0161 24.5845C25.0161 25.9761 24.7451 27.2212 24.2031 28.3198C23.6611 29.4185 22.8774 30.3486 21.8521 31.1104C20.8267 31.8721 19.6035 32.4507 18.1826 32.8462C16.7617 33.2417 15.1724 33.4395 13.4146 33.4395C11.8325 33.4395 10.2725 33.2344 8.73438 32.8242C7.19629 32.3994 5.79736 31.7622 4.5376 30.9126C3.29248 30.063 2.29639 28.979 1.54932 27.6606C0.802246 26.3423 0.428711 24.7822 0.428711 22.9805H7.04248C7.04248 23.9766 7.19629 24.8188 7.50391 25.5073C7.81152 26.1958 8.24365 26.7524 8.80029 27.1772C9.37158 27.6021 10.0454 27.9097 10.8218 28.1001C11.6128 28.2905 12.4771 28.3857 13.4146 28.3857C14.5571 28.3857 15.4946 28.2246 16.2271 27.9023C16.9741 27.5801 17.5234 27.1333 17.875 26.562C18.2412 25.9907 18.4243 25.3462 18.4243 24.6284ZM47.1646 1.00781H53.7344V22.1455C53.7344 24.6064 53.207 26.6792 52.1523 28.3638C51.1123 30.0483 49.6694 31.3154 47.8237 32.165C45.9927 33.0146 43.8833 33.4395 41.4956 33.4395C39.1079 33.4395 36.9839 33.0146 35.1235 32.165C33.2778 31.3154 31.8276 30.0483 30.7729 28.3638C29.7329 26.6792 29.2129 24.6064 29.2129 22.1455V1.00781H35.8047V22.1455C35.8047 23.5811 36.0317 24.7529 36.4858 25.6611C36.9399 26.5693 37.5918 27.2358 38.4414 27.6606C39.3057 28.0854 40.3237 28.2979 41.4956 28.2979C42.6968 28.2979 43.7148 28.0854 44.5498 27.6606C45.3994 27.2358 46.0439 26.5693 46.4834 25.6611C46.9375 24.7529 47.1646 23.5811 47.1646 22.1455V1.00781ZM75.8169 24.6284C75.8169 24.0571 75.729 23.5444 75.5532 23.0903C75.3921 22.6216 75.0845 22.1968 74.6304 21.8159C74.1763 21.4204 73.5391 21.0322 72.7188 20.6514C71.8984 20.2705 70.8364 19.875 69.5327 19.4648C68.0825 18.9961 66.7056 18.4688 65.4019 17.8828C64.1128 17.2969 62.9702 16.6157 61.9741 15.8394C60.9927 15.0483 60.2163 14.1328 59.645 13.0928C59.0884 12.0527 58.8101 10.8442 58.8101 9.46729C58.8101 8.13428 59.103 6.92578 59.689 5.8418C60.2749 4.74316 61.0952 3.80566 62.1499 3.0293C63.2046 2.23828 64.4497 1.63037 65.8853 1.20557C67.3354 0.780762 68.9248 0.568359 70.6533 0.568359C73.0117 0.568359 75.0698 0.993164 76.8276 1.84277C78.5854 2.69238 79.9478 3.85693 80.9146 5.33643C81.896 6.81592 82.3867 8.50781 82.3867 10.4121H75.8389C75.8389 9.47461 75.6411 8.6543 75.2456 7.95117C74.8647 7.2334 74.2788 6.66943 73.4878 6.25928C72.7114 5.84912 71.73 5.64404 70.5435 5.64404C69.4009 5.64404 68.4487 5.81982 67.687 6.17139C66.9253 6.5083 66.354 6.96973 65.9731 7.55566C65.5923 8.12695 65.4019 8.77148 65.4019 9.48926C65.4019 10.0312 65.5337 10.522 65.7974 10.9614C66.0757 11.4009 66.4858 11.811 67.0278 12.1919C67.5698 12.5728 68.2363 12.9316 69.0273 13.2686C69.8184 13.6055 70.7339 13.9351 71.7739 14.2573C73.5171 14.7847 75.0479 15.3779 76.3662 16.0371C77.6992 16.6963 78.8125 17.436 79.7061 18.2563C80.5996 19.0767 81.2734 20.0068 81.7275 21.0469C82.1816 22.0869 82.4087 23.2661 82.4087 24.5845C82.4087 25.9761 82.1377 27.2212 81.5957 28.3198C81.0537 29.4185 80.27 30.3486 79.2446 31.1104C78.2192 31.8721 76.9961 32.4507 75.5752 32.8462C74.1543 33.2417 72.5649 33.4395 70.8071 33.4395C69.2251 33.4395 67.665 33.2344 66.127 32.8242C64.5889 32.3994 63.1899 31.7622 61.9302 30.9126C60.6851 30.063 59.689 28.979 58.9419 27.6606C58.1948 26.3423 57.8213 24.7822 57.8213 22.9805H64.4351C64.4351 23.9766 64.5889 24.8188 64.8965 25.5073C65.2041 26.1958 65.6362 26.7524 66.1929 27.1772C66.7642 27.6021 67.438 27.9097 68.2144 28.1001C69.0054 28.2905 69.8696 28.3857 70.8071 28.3857C71.9497 28.3857 72.8872 28.2246 73.6196 27.9023C74.3667 27.5801 74.916 27.1333 75.2676 26.562C75.6338 25.9907 75.8169 25.3462 75.8169 24.6284ZM108.227 14.0376V19.1792H91.5273V14.0376H108.227ZM93.4829 1.00781V33H86.8911V1.00781H93.4829ZM112.929 1.00781V33H106.359V1.00781H112.929ZM125.673 1.00781V33H119.103V1.00781H125.673ZM147.448 1.00781L154.127 15.5977L160.807 1.00781H167.992L157.467 21.3545V33H150.788V21.3545L140.241 1.00781H147.448ZM196.535 16.2568V17.7729C196.535 20.2046 196.205 22.3872 195.546 24.3208C194.887 26.2544 193.957 27.9023 192.755 29.2646C191.554 30.6123 190.119 31.645 188.449 32.3628C186.793 33.0806 184.955 33.4395 182.934 33.4395C180.927 33.4395 179.088 33.0806 177.418 32.3628C175.763 31.645 174.328 30.6123 173.112 29.2646C171.896 27.9023 170.951 26.2544 170.277 24.3208C169.618 22.3872 169.289 20.2046 169.289 17.7729V16.2568C169.289 13.8105 169.618 11.6279 170.277 9.70898C170.937 7.77539 171.867 6.12744 173.068 4.76514C174.284 3.40283 175.719 2.36279 177.375 1.64502C179.044 0.927246 180.883 0.568359 182.89 0.568359C184.911 0.568359 186.75 0.927246 188.405 1.64502C190.075 2.36279 191.51 3.40283 192.711 4.76514C193.927 6.12744 194.865 7.77539 195.524 9.70898C196.198 11.6279 196.535 13.8105 196.535 16.2568ZM189.877 17.7729V16.2129C189.877 14.5137 189.723 13.0195 189.416 11.7305C189.108 10.4414 188.654 9.35742 188.053 8.47852C187.453 7.59961 186.72 6.94043 185.856 6.50098C184.992 6.04687 184.003 5.81982 182.89 5.81982C181.776 5.81982 180.788 6.04687 179.923 6.50098C179.074 6.94043 178.349 7.59961 177.748 8.47852C177.162 9.35742 176.715 10.4414 176.408 11.7305C176.1 13.0195 175.946 14.5137 175.946 16.2129V17.7729C175.946 19.4575 176.1 20.9517 176.408 22.2554C176.715 23.5444 177.169 24.6357 177.77 25.5293C178.371 26.4082 179.103 27.0747 179.967 27.5288C180.832 27.9829 181.82 28.21 182.934 28.21C184.047 28.21 185.036 27.9829 185.9 27.5288C186.764 27.0747 187.489 26.4082 188.075 25.5293C188.661 24.6357 189.108 23.5444 189.416 22.2554C189.723 20.9517 189.877 19.4575 189.877 17.7729ZM218.947 1.00781H225.517V22.1455C225.517 24.6064 224.989 26.6792 223.935 28.3638C222.895 30.0483 221.452 31.3154 219.606 32.165C217.775 33.0146 215.666 33.4395 213.278 33.4395C210.89 33.4395 208.766 33.0146 206.906 32.165C205.06 31.3154 203.61 30.0483 202.555 28.3638C201.515 26.6792 200.995 24.6064 200.995 22.1455V1.00781H207.587V22.1455C207.587 23.5811 207.814 24.7529 208.268 25.6611C208.722 26.5693 209.374 27.2358 210.224 27.6606C211.088 28.0854 212.106 28.2979 213.278 28.2979C214.479 28.2979 215.497 28.0854 216.332 27.6606C217.182 27.2358 217.826 26.5693 218.266 25.6611C218.72 24.7529 218.947 23.5811 218.947 22.1455V1.00781ZM61.5127 59.479L52.8115 86H45.8022L57.6895 54.0078H62.1499L61.5127 59.479ZM68.7417 86L60.0186 59.479L59.3154 54.0078H63.8198L75.7729 86H68.7417ZM68.3462 74.0908V79.2544H51.4492V74.0908H68.3462ZM103.7 69.2788V81.957C103.202 82.5576 102.433 83.2095 101.393 83.9126C100.353 84.6011 99.0127 85.1943 97.3721 85.6924C95.7314 86.1904 93.7466 86.4395 91.4175 86.4395C89.3521 86.4395 87.4697 86.1025 85.7705 85.4287C84.0713 84.7402 82.6064 83.7368 81.376 82.4185C80.1602 81.1001 79.2227 79.4888 78.5635 77.5845C77.9043 75.6655 77.5747 73.4756 77.5747 71.0146V69.0151C77.5747 66.5542 77.8896 64.3643 78.5195 62.4453C79.1641 60.5264 80.0796 58.9077 81.2661 57.5894C82.4526 56.271 83.8662 55.2676 85.5068 54.5791C87.1475 53.8906 88.9712 53.5464 90.978 53.5464C93.7612 53.5464 96.0464 54.0005 97.8335 54.9087C99.6206 55.8022 100.983 57.0474 101.92 58.644C102.873 60.2261 103.458 62.0425 103.678 64.0933H97.2842C97.123 63.0093 96.8154 62.0645 96.3613 61.2588C95.9072 60.4531 95.2554 59.8232 94.4058 59.3691C93.5708 58.915 92.4868 58.688 91.1538 58.688C90.0552 58.688 89.0737 58.915 88.2095 59.3691C87.3599 59.8086 86.6421 60.4604 86.0562 61.3247C85.4702 62.189 85.0234 63.2583 84.7158 64.5327C84.4082 65.8071 84.2544 67.2866 84.2544 68.9712V71.0146C84.2544 72.6846 84.4155 74.1641 84.7378 75.4531C85.0601 76.7275 85.5361 77.8042 86.166 78.6831C86.8105 79.5474 87.6016 80.1992 88.5391 80.6387C89.4766 81.0781 90.5679 81.2979 91.813 81.2979C92.853 81.2979 93.7173 81.21 94.4058 81.0342C95.1089 80.8584 95.6729 80.646 96.0977 80.397C96.5371 80.1333 96.874 79.8843 97.1084 79.6499V73.981H91.0879V69.2788H103.7ZM122.025 59.479L113.324 86H106.315L118.202 54.0078H122.663L122.025 59.479ZM129.254 86L120.531 59.479L119.828 54.0078H124.333L136.286 86H129.254ZM128.859 74.0908V79.2544H111.962V74.0908H128.859ZM146.261 54.0078V86H139.691V54.0078H146.261ZM178.473 54.0078V86H171.881L159.027 64.5547V86H152.436V54.0078H159.027L171.903 75.4751V54.0078H178.473Z" fill="white"/>
</svg>
