<svg width="200" height="19" viewBox="0 0 200 19" fill="none" xmlns="http://www.w3.org/2000/svg">
<path d="M9.51953 13.5C9.51953 13.2109 9.47656 12.9531 9.39062 12.7266C9.30469 12.4922 9.14844 12.2773 8.92188 12.082C8.69531 11.8867 8.375 11.6914 7.96094 11.4961C7.54688 11.293 7.00391 11.0859 6.33203 10.875C5.56641 10.625 4.83594 10.3438 4.14062 10.0312C3.45312 9.71094 2.83984 9.33984 2.30078 8.91797C1.76172 8.49609 1.33594 8.00391 1.02344 7.44141C0.71875 6.87891 0.566406 6.22266 0.566406 5.47266C0.566406 4.74609 0.726562 4.08984 1.04688 3.50391C1.36719 2.91797 1.81641 2.41797 2.39453 2.00391C2.97266 1.58203 3.65234 1.26172 4.43359 1.04297C5.21484 0.816406 6.07422 0.703125 7.01172 0.703125C8.26172 0.703125 9.35938 0.925781 10.3047 1.37109C11.2578 1.80859 12 2.42578 12.5312 3.22266C13.0625 4.01172 13.3281 4.92969 13.3281 5.97656H9.53125C9.53125 5.51562 9.43359 5.10938 9.23828 4.75781C9.05078 4.39844 8.76172 4.11719 8.37109 3.91406C7.98828 3.71094 7.50781 3.60938 6.92969 3.60938C6.36719 3.60938 5.89453 3.69531 5.51172 3.86719C5.13672 4.03125 4.85156 4.25781 4.65625 4.54688C4.46875 4.83594 4.375 5.15234 4.375 5.49609C4.375 5.76953 4.44531 6.01953 4.58594 6.24609C4.73438 6.46484 4.94531 6.67188 5.21875 6.86719C5.5 7.05469 5.84375 7.23438 6.25 7.40625C6.65625 7.57812 7.12109 7.74219 7.64453 7.89844C8.55859 8.1875 9.36719 8.50781 10.0703 8.85938C10.7812 9.21094 11.3789 9.60938 11.8633 10.0547C12.3477 10.5 12.7109 11.0039 12.9531 11.5664C13.2031 12.1289 13.3281 12.7656 13.3281 13.4766C13.3281 14.2344 13.1797 14.9062 12.8828 15.4922C12.5938 16.0781 12.1719 16.5781 11.6172 16.9922C11.0703 17.3984 10.4141 17.707 9.64844 17.918C8.88281 18.1289 8.02734 18.2344 7.08203 18.2344C6.22266 18.2344 5.375 18.125 4.53906 17.9062C3.70312 17.6797 2.94531 17.3359 2.26562 16.875C1.59375 16.4141 1.05469 15.8281 0.648438 15.1172C0.25 14.3984 0.0507812 13.5469 0.0507812 12.5625H3.87109C3.87109 13.0781 3.94531 13.5156 4.09375 13.875C4.24219 14.2266 4.45312 14.5117 4.72656 14.7305C5.00781 14.9492 5.34766 15.1055 5.74609 15.1992C6.14453 15.293 6.58984 15.3398 7.08203 15.3398C7.65234 15.3398 8.11328 15.2617 8.46484 15.1055C8.82422 14.9414 9.08984 14.7188 9.26172 14.4375C9.43359 14.1562 9.51953 13.8438 9.51953 13.5ZM24.918 0.9375H28.7383V12.1406C28.7383 13.4688 28.457 14.5859 27.8945 15.4922C27.3398 16.3984 26.5664 17.082 25.5742 17.543C24.582 18.0039 23.4336 18.2344 22.1289 18.2344C20.8164 18.2344 19.6602 18.0039 18.6602 17.543C17.668 17.082 16.8867 16.3984 16.3164 15.4922C15.7539 14.5859 15.4727 13.4688 15.4727 12.1406V0.9375H19.3047V12.1406C19.3047 12.875 19.4141 13.4766 19.6328 13.9453C19.8594 14.4062 20.1836 14.7461 20.6055 14.9648C21.0273 15.1758 21.5352 15.2812 22.1289 15.2812C22.7227 15.2812 23.2266 15.1758 23.6406 14.9648C24.0625 14.7461 24.3789 14.4062 24.5898 13.9453C24.8086 13.4766 24.918 12.875 24.918 12.1406V0.9375ZM40.3164 13.5C40.3164 13.2109 40.2734 12.9531 40.1875 12.7266C40.1016 12.4922 39.9453 12.2773 39.7188 12.082C39.4922 11.8867 39.1719 11.6914 38.7578 11.4961C38.3438 11.293 37.8008 11.0859 37.1289 10.875C36.3633 10.625 35.6328 10.3438 34.9375 10.0312C34.25 9.71094 33.6367 9.33984 33.0977 8.91797C32.5586 8.49609 32.1328 8.00391 31.8203 7.44141C31.5156 6.87891 31.3633 6.22266 31.3633 5.47266C31.3633 4.74609 31.5234 4.08984 31.8438 3.50391C32.1641 2.91797 32.6133 2.41797 33.1914 2.00391C33.7695 1.58203 34.4492 1.26172 35.2305 1.04297C36.0117 0.816406 36.8711 0.703125 37.8086 0.703125C39.0586 0.703125 40.1562 0.925781 41.1016 1.37109C42.0547 1.80859 42.7969 2.42578 43.3281 3.22266C43.8594 4.01172 44.125 4.92969 44.125 5.97656H40.3281C40.3281 5.51562 40.2305 5.10938 40.0352 4.75781C39.8477 4.39844 39.5586 4.11719 39.168 3.91406C38.7852 3.71094 38.3047 3.60938 37.7266 3.60938C37.1641 3.60938 36.6914 3.69531 36.3086 3.86719C35.9336 4.03125 35.6484 4.25781 35.4531 4.54688C35.2656 4.83594 35.1719 5.15234 35.1719 5.49609C35.1719 5.76953 35.2422 6.01953 35.3828 6.24609C35.5312 6.46484 35.7422 6.67188 36.0156 6.86719C36.2969 7.05469 36.6406 7.23438 37.0469 7.40625C37.4531 7.57812 37.918 7.74219 38.4414 7.89844C39.3555 8.1875 40.1641 8.50781 40.8672 8.85938C41.5781 9.21094 42.1758 9.60938 42.6602 10.0547C43.1445 10.5 43.5078 11.0039 43.75 11.5664C44 12.1289 44.125 12.7656 44.125 13.4766C44.125 14.2344 43.9766 14.9062 43.6797 15.4922C43.3906 16.0781 42.9688 16.5781 42.4141 16.9922C41.8672 17.3984 41.2109 17.707 40.4453 17.918C39.6797 18.1289 38.8242 18.2344 37.8789 18.2344C37.0195 18.2344 36.1719 18.125 35.3359 17.9062C34.5 17.6797 33.7422 17.3359 33.0625 16.875C32.3906 16.4141 31.8516 15.8281 31.4453 15.1172C31.0469 14.3984 30.8477 13.5469 30.8477 12.5625H34.668C34.668 13.0781 34.7422 13.5156 34.8906 13.875C35.0391 14.2266 35.25 14.5117 35.5234 14.7305C35.8047 14.9492 36.1445 15.1055 36.543 15.1992C36.9414 15.293 37.3867 15.3398 37.8789 15.3398C38.4492 15.3398 38.9102 15.2617 39.2617 15.1055C39.6211 14.9414 39.8867 14.7188 40.0586 14.4375C40.2305 14.1562 40.3164 13.8438 40.3164 13.5ZM57.8242 7.80469V10.7578H48.9883V7.80469H57.8242ZM50.1953 0.9375V18H46.375V0.9375H50.1953ZM60.4609 0.9375V18H56.6523V0.9375H60.4609ZM67.3633 0.9375V18H63.5547V0.9375H67.3633ZM79.1523 0.9375L82.4922 8.53125L85.8555 0.9375H89.9805L84.4375 11.8359V18H80.5586V11.8359L75.0039 0.9375H79.1523ZM105.273 9.09375V9.85547C105.273 11.1523 105.094 12.3164 104.734 13.3477C104.383 14.3789 103.879 15.2578 103.223 15.9844C102.574 16.7109 101.801 17.2695 100.902 17.6602C100.012 18.043 99.0234 18.2344 97.9375 18.2344C96.8516 18.2344 95.8594 18.043 94.9609 17.6602C94.0625 17.2695 93.2812 16.7109 92.6172 15.9844C91.9609 15.2578 91.4531 14.3789 91.0938 13.3477C90.7344 12.3164 90.5547 11.1523 90.5547 9.85547V9.09375C90.5547 7.79688 90.7344 6.63281 91.0938 5.60156C91.4531 4.5625 91.957 3.67969 92.6055 2.95312C93.2617 2.22656 94.0391 1.67188 94.9375 1.28906C95.8359 0.898438 96.8281 0.703125 97.9141 0.703125C99 0.703125 99.9922 0.898438 100.891 1.28906C101.789 1.67188 102.562 2.22656 103.211 2.95312C103.867 3.67969 104.375 4.5625 104.734 5.60156C105.094 6.63281 105.273 7.79688 105.273 9.09375ZM101.418 9.85547V9.07031C101.418 8.20312 101.34 7.4375 101.184 6.77344C101.027 6.10156 100.801 5.53906 100.504 5.08594C100.207 4.63281 99.8398 4.29297 99.4023 4.06641C98.9648 3.83203 98.4688 3.71484 97.9141 3.71484C97.3359 3.71484 96.832 3.83203 96.4023 4.06641C95.9727 4.29297 95.6094 4.63281 95.3125 5.08594C95.0234 5.53906 94.8008 6.10156 94.6445 6.77344C94.4961 7.4375 94.4219 8.20312 94.4219 9.07031V9.85547C94.4219 10.7148 94.4961 11.4805 94.6445 12.1523C94.8008 12.8164 95.0273 13.3789 95.3242 13.8398C95.6211 14.3008 95.9844 14.6484 96.4141 14.8828C96.8516 15.1172 97.3594 15.2344 97.9375 15.2344C98.4922 15.2344 98.9844 15.1172 99.4141 14.8828C99.8516 14.6484 100.219 14.3008 100.516 13.8398C100.812 13.3789 101.035 12.8164 101.184 12.1523C101.34 11.4805 101.418 10.7148 101.418 9.85547ZM116.957 0.9375H120.777V12.1406C120.777 13.4688 120.496 14.5859 119.934 15.4922C119.379 16.3984 118.605 17.082 117.613 17.543C116.621 18.0039 115.473 18.2344 114.168 18.2344C112.855 18.2344 111.699 18.0039 110.699 17.543C109.707 17.082 108.926 16.3984 108.355 15.4922C107.793 14.5859 107.512 13.4688 107.512 12.1406V0.9375H111.344V12.1406C111.344 12.875 111.453 13.4766 111.672 13.9453C111.898 14.4062 112.223 14.7461 112.645 14.9648C113.066 15.1758 113.574 15.2812 114.168 15.2812C114.762 15.2812 115.266 15.1758 115.68 14.9648C116.102 14.7461 116.418 14.4062 116.629 13.9453C116.848 13.4766 116.957 12.875 116.957 12.1406V0.9375ZM136.574 4.18359L132.168 18H128.09L134.406 0.9375H136.984L136.574 4.18359ZM140.23 18L135.812 4.18359L135.355 0.9375H137.969L144.309 18H140.23ZM140.043 11.6484V14.6016H131.148V11.6484H140.043ZM159.238 8.98828V15.8672C158.957 16.1875 158.527 16.5312 157.949 16.8984C157.379 17.2656 156.648 17.582 155.758 17.8477C154.867 18.1055 153.805 18.2344 152.57 18.2344C151.453 18.2344 150.438 18.0547 149.523 17.6953C148.609 17.3281 147.824 16.793 147.168 16.0898C146.512 15.3789 146.004 14.5117 145.645 13.4883C145.293 12.4648 145.117 11.293 145.117 9.97266V8.96484C145.117 7.64453 145.293 6.47266 145.645 5.44922C145.996 4.42578 146.492 3.5625 147.133 2.85938C147.773 2.14844 148.535 1.60937 149.418 1.24219C150.301 0.875 151.277 0.691406 152.348 0.691406C153.871 0.691406 155.117 0.9375 156.086 1.42969C157.055 1.91406 157.789 2.58594 158.289 3.44531C158.797 4.30469 159.109 5.29297 159.227 6.41016H155.547C155.469 5.83984 155.312 5.34766 155.078 4.93359C154.852 4.51953 154.527 4.20312 154.105 3.98438C153.684 3.75781 153.137 3.64453 152.465 3.64453C151.926 3.64453 151.438 3.75781 151 3.98438C150.57 4.20312 150.207 4.53516 149.91 4.98047C149.613 5.42578 149.387 5.98047 149.23 6.64453C149.074 7.30078 148.996 8.06641 148.996 8.94141V9.97266C148.996 10.8477 149.074 11.6172 149.23 12.2812C149.395 12.9453 149.633 13.5 149.945 13.9453C150.258 14.3828 150.652 14.7148 151.129 14.9414C151.613 15.168 152.176 15.2812 152.816 15.2812C153.316 15.2812 153.738 15.2422 154.082 15.1641C154.426 15.0781 154.707 14.9727 154.926 14.8477C155.145 14.7148 155.309 14.5938 155.418 14.4844V11.6484H152.383V8.98828H159.238ZM168.941 4.18359L164.535 18H160.457L166.773 0.9375H169.352L168.941 4.18359ZM172.598 18L168.18 4.18359L167.723 0.9375H170.336L176.676 18H172.598ZM172.41 11.6484V14.6016H163.516V11.6484H172.41ZM182.16 0.9375V18H178.352V0.9375H182.16ZM199.316 0.9375V18H195.508L189.062 6.97266V18H185.242V0.9375H189.062L195.52 11.9648V0.9375H199.316Z" fill="white"/>
</svg>
